<?xml version="1.0" standalone="no"?>
<!DOCTYPE svg PUBLIC "-//W3C//DTD SVG 20010904//EN"
 "http://www.w3.org/TR/2001/REC-SVG-20010904/DTD/svg10.dtd">
<svg version="1.0" xmlns="http://www.w3.org/2000/svg"
 width="150.000000pt" height="150.000000pt" viewBox="0 0 150.000000 150.000000"
 preserveAspectRatio="xMidYMid meet">

<g transform="translate(0.000000,150.000000) scale(0.100000,-0.100000)"
fill="#000000" stroke="none">
<path d="M610 1486 c-268 -57 -483 -247 -570 -506 -16 -48 -23 -99 -27 -190
-6 -142 11 -235 63 -345 l29 -60 -52 -190 c-28 -104 -51 -191 -50 -192 1 -1
89 21 196 48 l193 50 61 -25 c117 -48 175 -60 297 -60 133 0 227 22 339 79
186 93 335 277 388 475 27 101 24 293 -6 390 -44 142 -138 287 -242 373 -60
49 -180 111 -264 137 -90 28 -263 35 -355 16z m345 -144 c196 -68 348 -233
400 -433 21 -80 21 -224 1 -300 -50 -186 -173 -332 -345 -411 -169 -78 -356
-75 -527 6 l-72 34 -113 -28 c-63 -16 -114 -28 -116 -27 -1 1 12 50 28 109
l30 107 -41 84 c-75 157 -87 309 -34 467 75 222 256 378 486 420 86 15 212 3
303 -28z"/>
<path d="M429 1068 c-43 -47 -64 -127 -49 -185 24 -97 98 -203 220 -316 95
-88 263 -167 354 -167 44 0 131 44 152 75 10 15 18 47 18 72 l1 44 -90 39 -90
39 -45 -50 c-25 -27 -51 -49 -59 -49 -8 0 -42 16 -77 35 -66 37 -180 152 -190
190 -4 15 5 37 27 68 l32 46 -23 58 c-51 127 -55 133 -106 133 -38 0 -50 -5
-75 -32z"/>
</g>
</svg>
